<svg width="198" height="198" viewBox="0 0 198 198" fill="none" xmlns="http://www.w3.org/2000/svg">
<path opacity="0.1" d="M148.743 147.643C175.703 120.073 175.209 75.8686 147.64 48.9084C120.071 21.9483 75.8659 22.4421 48.9057 50.0114C21.9456 77.5806 22.4394 121.785 50.0087 148.746C77.5779 175.706 121.783 175.212 148.743 147.643Z" fill="white"/>
<path d="M138.009 145.438C163.755 123.796 167.082 85.3798 145.44 59.6334C123.798 33.8871 85.3821 30.5599 59.6358 52.202C33.8894 73.844 30.5622 112.26 52.2043 138.006C73.8464 163.753 112.262 167.08 138.009 145.438Z" fill="#5BCBF5"/>
<mask id="mask0_649_1559" style="mask-type:luminance" maskUnits="userSpaceOnUse" x="37" y="37" width="123" height="123">
<path d="M138.009 145.438C163.755 123.795 167.082 85.3796 145.44 59.6332C123.798 33.8868 85.3821 30.5596 59.6358 52.2017C33.8894 73.8438 30.5622 112.26 52.2043 138.006C73.8464 163.752 112.262 167.08 138.009 145.438Z" fill="white"/>
</mask>
<g mask="url(#mask0_649_1559)">
<path d="M31.6301 103.4C31.6601 95.8818 33.2989 88.4574 36.4364 81.6253C39.5738 74.7932 44.1373 68.7118 49.8201 63.7898C49.8201 63.7898 48.5401 67.7898 56.0701 66.0998C63.6001 64.4098 62.3701 67.7498 62.0701 69.5298C61.7701 71.3098 57.6701 70.3498 54.9701 69.6998C52.2701 69.0498 44.7801 70.9198 42.0001 75.7998C39.2201 80.6798 36.7401 84.6998 38.4601 85.5398C40.1801 86.3798 44.7901 77.8798 47.4601 75.7898C50.1301 73.6998 50.7001 75.9998 49.8801 79.9998C49.0601 83.9998 50.7601 86.4798 54.5601 85.6798C58.3601 84.8798 61.6201 82.2998 61.5601 80.8298C61.5001 79.3598 54.7201 75.5298 61.6601 73.7498C68.6001 71.9698 73.8601 69.8998 73.0001 76.9198C72.1401 83.9398 71.0001 91.9198 72.8401 94.2898C74.6801 96.6598 77.8401 97.1798 77.1201 98.0698C76.4001 98.9598 74.6801 98.5698 73.4301 98.2798C72.1801 97.9898 69.3001 99.9898 68.4301 101.6C67.5601 103.21 66.8301 107.24 69.7901 107.91C72.7501 108.58 73.8601 106.13 76.4501 105.37C79.0401 104.61 83.5901 106.37 83.8801 107.37C84.1701 108.37 81.7801 108.85 78.3101 107.46C74.8401 106.07 73.8601 109.83 71.7801 110.88C69.7001 111.93 68.1801 112.76 63.8701 111.25C59.5601 109.74 55.3001 111.98 52.3601 111.5C43.8901 110.2 40.9401 106.2 38.6001 105.24C36.3166 104.45 33.9766 103.835 31.6001 103.4H31.6301Z" fill="#257793"/>
<path d="M86.77 97.8998C86.77 97.8998 91.41 94.6198 95.16 94.6198C98.91 94.6198 99.81 95.0798 103.7 92.9498C107.59 90.8198 110.62 91.4298 111.58 96.8498C112.54 102.27 113.63 111.3 113.26 114.62C112.89 117.94 111.85 121.34 113.47 124.93C115.09 128.52 116.28 130.48 119.13 130.01C119.13 130.01 120.24 133.3 115.24 132.14C110.24 130.98 108.88 125.68 107.45 123.14C106.02 120.6 101.6 113.24 99.53 112.29C97.46 111.34 93.32 113.19 89.62 110.65C85.92 108.11 81.88 100.46 86.77 97.8998Z" fill="#257793"/>
<path d="M135.07 46.3997C136.3 50.6997 132.43 51.9697 128.44 55.1497C123.32 59.2297 118.24 58.7997 112.58 61.1497C107.33 63.3697 105.42 69.3197 105.86 74.6297C106.19 78.5697 107.95 86.6297 112.04 88.0597C114.044 88.6314 116.142 88.7947 118.21 88.5397C121.202 88.4391 124.181 88.1048 127.12 87.5397C130.48 86.8097 134 85.4897 137.24 86.6497C139.91 87.6497 141.74 90.0597 143.08 92.5497C146.72 99.3897 145 108.75 154 111.09C155.624 111.533 157.324 111.618 158.983 111.338C160.643 111.058 162.222 110.421 163.61 109.47C164.227 97.4469 161.962 85.4507 157.005 74.4802C152.047 63.5097 144.541 53.8823 135.11 46.3997H135.07Z" fill="#257793"/>
<path d="M75.6501 42.4198C74.9424 43.4311 74.499 44.6033 74.3601 45.8298C74.2901 48.3898 76.8001 50.3698 78.3601 52.0098C78.918 52.5954 79.5234 53.1339 80.1701 53.6198C88.4201 59.7298 93.1701 50.4798 100.17 48.9898C104.62 47.9898 109.17 50.4198 113.72 49.9898C118.86 49.4998 120.87 44.2798 121.25 39.1298C118.75 37.1898 116.167 35.3598 113.5 33.6398C100.69 25.3798 83.5001 29.1298 75.7201 42.2498L75.6501 42.4198Z" fill="#257793"/>
<path d="M72.4902 154.16C79.3652 158.209 87.2694 160.172 95.2402 159.81C95.2402 159.81 93.4602 156.03 91.3302 155.29C89.2002 154.55 87.7302 156.71 86.4702 155.66C85.2102 154.61 87.9802 154.01 85.4702 149.81C82.9602 145.61 77.2802 143.63 75.1802 146.34C73.0802 149.05 72.4702 154.16 72.4702 154.16H72.4902Z" fill="#257793"/>
<path d="M137.53 117.17C138.84 117.47 139.61 115.1 142.07 118.35C144.53 121.6 143.66 123.11 145.64 124.12C147.62 125.13 146.64 127.85 146.15 127.97C145.66 128.09 143.99 128.71 143.09 129.07C142.19 129.43 139.72 130.15 139.01 129C138.3 127.85 138.63 126.93 137.01 125.79C135.39 124.65 135.01 125.15 133.73 125.06C132.45 124.97 132.38 123.63 131.03 124.76C129.68 125.89 127.03 128.58 126.79 126.88C126.562 125.547 126.78 124.176 127.41 122.98C128.03 121.41 126.85 123.12 128.03 121.41C129.21 119.7 128.5 119.7 130.03 119.12C131.56 118.54 137.53 117.17 137.53 117.17Z" fill="#257793"/>
<path opacity="0.2" d="M152.42 68.3899C152.343 80.1071 149.721 91.6677 144.734 102.271C139.747 112.875 132.516 122.268 123.54 129.8C107.11 143.61 83.39 150.33 63.54 149.24C65.0458 150.317 66.6044 151.318 68.21 152.24C79.9239 159.06 93.5627 161.818 107.006 160.088C120.45 158.357 132.945 152.233 142.549 142.669C152.154 133.104 158.329 120.635 160.116 107.198C161.903 93.7622 159.201 80.1121 152.43 68.3699L152.42 68.3899Z" fill="black"/>
</g>
</svg>
