<svg width="58" height="42" viewBox="0 0 58 42" fill="none" xmlns="http://www.w3.org/2000/svg">
<g clip-path="url(#clip0_649_1543)">
<path d="M16.3099 41.57C16.9893 41.3256 17.632 40.9891 18.2199 40.57C19.9668 39.3777 21.2752 37.646 21.9449 35.6399C22.6146 33.6337 22.6088 31.4634 21.9284 29.4608C21.248 27.4582 19.9305 25.7335 18.1773 24.5506C16.424 23.3676 14.3316 22.7913 12.2199 22.91C10.4624 23.0205 8.76515 23.5931 7.29992 24.57C6.70685 24.9868 6.16037 25.4662 5.66992 26C5.96446 24.1129 6.64669 22.3072 7.67363 20.6968C8.70056 19.0864 10.0499 17.7061 11.6367 16.643C13.2235 15.58 15.0132 14.8571 16.8932 14.5199C18.7732 14.1828 20.7026 14.2387 22.5599 14.6841C24.4173 15.1296 26.1622 15.9549 27.6847 17.1081C29.2072 18.2613 30.4744 19.7174 31.4064 21.3845C32.3383 23.0517 32.9149 24.8938 33.0996 26.7949C33.2844 28.6959 33.0734 30.6146 32.4799 32.43C31.518 35.2898 29.6369 37.751 27.1299 39.43C25.5812 40.5335 23.8156 41.2949 21.9501 41.6639C20.0847 42.0329 18.1621 42.0008 16.3099 41.57Z" fill="#5BCBF5"/>
<path d="M57.81 2.3499C57.8003 2.18416 57.7459 2.02415 57.6526 1.88683C57.5592 1.7495 57.4305 1.63999 57.28 1.5699C53.9331 0.225584 50.3045 -0.265303 46.7207 0.141428C43.1369 0.54816 39.7105 1.83974 36.75 3.8999C32.63 6.6999 22.38 15.1999 12.89 23.6499C12.2251 24.2459 11.7989 25.0628 11.6904 25.9492C11.5819 26.8355 11.7985 27.7311 12.3 28.4699L16.35 34.4099C16.8562 35.1441 17.6111 35.6701 18.4751 35.8907C19.3392 36.1113 20.2538 36.0116 21.05 35.6099C32.38 29.8699 44.05 23.4199 48.15 20.6099C51.1477 18.6056 53.6 15.8874 55.2862 12.6999C56.9725 9.51248 57.8397 5.95578 57.81 2.3499Z" fill="#FFCB39"/>
<path d="M14.33 31.4399L12.33 28.4399C11.8286 27.7011 11.612 26.8055 11.7205 25.9192C11.829 25.0328 12.2552 24.2159 12.92 23.6199C22.38 15.1999 32.63 6.6999 36.75 3.8999C39.7106 1.83974 43.1369 0.54816 46.7207 0.141428C50.3045 -0.265303 53.9332 0.225584 57.28 1.5699C57.43 1.64122 57.5579 1.7518 57.65 1.8899L14.33 31.4399Z" fill="#FF9600"/>
<path d="M44.8 17.3399C43.8981 17.9551 42.834 18.2891 41.7422 18.2995C40.6505 18.31 39.5802 17.9964 38.6666 17.3985C37.7531 16.8007 37.0374 15.9453 36.61 14.9407C36.1826 13.936 36.0627 12.8272 36.2655 11.7544C36.4683 10.6816 36.9847 9.69304 37.7494 8.91374C38.514 8.13444 39.4926 7.5994 40.5613 7.37627C41.6301 7.15315 42.741 7.25196 43.7536 7.66022C44.7662 8.06848 45.6349 8.76785 46.25 9.66988C47.0747 10.8793 47.3853 12.3668 47.1134 13.8052C46.8414 15.2435 46.0093 16.515 44.8 17.3399Z" fill="#5BCBF5"/>
<path d="M57.28 1.5699C53.8539 0.179789 50.127 -0.302433 46.46 0.169899L55.17 12.9399C56.947 9.69607 57.8564 6.04832 57.81 2.3499C57.8002 2.18416 57.7458 2.02415 57.6525 1.88683C57.5592 1.74951 57.4305 1.63999 57.28 1.5699Z" fill="#5BCBF5"/>
<path d="M57.66 1.8899C57.565 1.7504 57.4336 1.6397 57.28 1.5699C53.8539 0.179789 50.127 -0.302433 46.46 0.169899L50.81 6.5499L57.66 1.8899Z" fill="#007BBD"/>
<path d="M44.7999 17.3399C46.0092 16.515 46.8413 15.2436 47.1132 13.8052C47.3851 12.3668 47.0746 10.8793 46.2499 9.66992L37.1299 15.8899C37.9548 17.0992 39.2262 17.9313 40.6646 18.2033C42.103 18.4752 43.5905 18.1646 44.7999 17.3399Z" fill="#C7F4F9"/>
<path d="M36.3701 16.41C35.6586 15.3571 35.2744 14.1174 35.266 12.8467C35.2576 11.576 35.6253 10.3312 36.3228 9.26906C37.0203 8.2069 38.0164 7.37482 39.1858 6.87757C40.3552 6.38032 41.6455 6.24013 42.8944 6.47464C44.1433 6.70915 45.2949 7.30788 46.2042 8.19547C47.1135 9.08305 47.74 10.2198 48.0046 11.4627C48.2693 12.7055 48.1604 13.9989 47.6916 15.1799C47.2228 16.361 46.415 17.377 45.3701 18.1C44.6693 18.5832 43.8797 18.923 43.047 19.0996C42.2143 19.2763 41.3548 19.2864 40.5181 19.1293C39.6815 18.9722 38.8842 18.651 38.1723 18.1843C37.4603 17.7176 36.8478 17.1145 36.3701 16.41ZM45.4901 10.19C44.9778 9.43796 44.2541 8.85475 43.4103 8.51412C42.5666 8.1735 41.6408 8.09075 40.75 8.27634C39.8592 8.46194 39.0435 8.90755 38.406 9.5568C37.7685 10.206 37.3379 11.0298 37.1686 11.9238C36.9993 12.8178 37.099 13.742 37.4549 14.5793C37.8109 15.4167 38.4073 16.1297 39.1685 16.6281C39.9298 17.1265 40.8217 17.388 41.7316 17.3794C42.6415 17.3709 43.5283 17.0926 44.2801 16.58C45.2855 15.8911 45.9772 14.8322 46.2039 13.6347C46.4307 12.4372 46.174 11.1987 45.4901 10.19Z" fill="#5C546A"/>
<path d="M11.39 38.49C7.39 41.21 0 41.22 0 41.22C0 41.22 2.33 34.59 6.7 31.61C7.61234 30.9881 8.73438 30.754 9.81928 30.9594C10.9042 31.1647 11.8631 31.7926 12.485 32.705C13.1069 33.6173 13.341 34.7394 13.1356 35.8243C12.9303 36.9092 12.3023 37.8681 11.39 38.49Z" fill="#E87E04"/>
<path d="M11.7499 36.5401C9.09994 38.3501 4.18994 38.3501 4.18994 38.3501C4.18994 38.3501 5.73994 34.0001 8.63994 32.0001C9.24596 31.5863 9.99152 31.4303 10.7126 31.5662C11.4337 31.7022 12.0712 32.119 12.4849 32.7251C12.8987 33.3311 13.0547 34.0766 12.9188 34.7977C12.7828 35.5188 12.366 36.1563 11.7599 36.5701L11.7499 36.5401Z" fill="#FF9600"/>
<path d="M11.7201 35.37C10.1101 36.47 7.11011 36.47 7.11011 36.47C7.64955 34.9545 8.58535 33.6112 9.82011 32.58C10.1888 32.3281 10.6424 32.2329 11.0812 32.3154C11.5201 32.3979 11.9082 32.6514 12.1601 33.02C12.4121 33.3887 12.5073 33.8423 12.4247 34.2811C12.3422 34.72 12.0888 35.1081 11.7201 35.36V35.37Z" fill="#FFCB39"/>
</g>
<defs>
<clipPath id="clip0_649_1543">
<rect width="57.83" height="41.92" fill="white"/>
</clipPath>
</defs>
</svg>
