<svg width="178" height="228" viewBox="0 0 178 228" fill="none" xmlns="http://www.w3.org/2000/svg">
<g clip-path="url(#clip0_649_1393)">
<path d="M29.5772 84.2904C30.4511 85.801 32.3842 86.3172 33.8949 85.4432C35.4055 84.5693 35.9217 82.6362 35.0477 81.1256C34.1738 79.6149 32.2407 79.0988 30.7301 79.9727C29.2194 80.8466 28.7033 82.7797 29.5772 84.2904Z" fill="#B5B5B5"/>
<path d="M95.197 124.524L64.447 142.344C62.1693 143.658 59.4844 144.079 56.9138 143.525C54.3431 142.971 52.0704 141.48 50.537 139.344L26.157 105.444C24.8941 103.687 24.0132 101.685 23.5708 99.5667C23.1284 97.4485 23.1344 95.2612 23.5885 93.1455C24.0425 91.0299 24.9345 89.0327 26.207 87.2826C27.4795 85.5325 29.1044 84.0682 30.977 82.9839L61.087 65.5439L95.197 124.524Z" fill="#969696"/>
<path d="M94.977 124.134L65.377 141.254C63.1812 142.521 60.5924 142.925 58.1151 142.387C55.6378 141.849 53.4496 140.407 51.977 138.344L28.697 106.004C27.4646 104.281 26.6056 102.319 26.1753 100.245C25.7449 98.1707 25.7527 96.0294 26.198 93.9582C26.6433 91.8871 27.5163 89.9318 28.7612 88.2176C30.006 86.5035 31.5953 85.0683 33.427 84.004L62.127 67.344L94.977 124.134Z" fill="#B5B5B5"/>
<path d="M93.3464 47.4108C92.4724 45.9002 90.5394 45.384 89.0287 46.2579C87.5181 47.1319 87.0019 49.0649 87.8758 50.5756C88.7498 52.0862 90.6828 52.6024 92.1935 51.7285C93.7041 50.8545 94.2203 48.9215 93.3464 47.4108Z" fill="#B5B5B5"/>
<path d="M95.1071 124.574L125.857 106.784C128.134 105.468 129.84 103.352 130.644 100.847C131.448 98.3433 131.292 95.6297 130.207 93.234L112.977 55.234C112.082 53.2652 110.784 51.5057 109.168 50.0685C107.552 48.6313 105.653 47.5482 103.593 46.8889C101.533 46.2296 99.358 46.0086 97.2076 46.2403C95.0573 46.472 92.9792 47.1511 91.1071 48.234L60.9971 65.604L95.1071 124.574Z" fill="#969696"/>
<path d="M94.497 124.414L124.097 107.294C126.279 106.029 127.915 104 128.689 101.599C129.463 99.1979 129.32 96.5954 128.287 94.2939L111.827 57.924C110.95 55.989 109.678 54.2591 108.093 52.8457C106.507 51.4324 104.643 50.3668 102.62 49.7177C100.597 49.0686 98.4611 48.8504 96.3491 49.0771C94.237 49.3038 92.1958 49.9704 90.357 51.0339L61.657 67.634L94.497 124.414Z" fill="#B5B5B5"/>
<path d="M105.807 142.344L105.067 142.774C104.942 142.844 104.833 142.939 104.748 143.055C104.662 143.17 104.603 143.303 104.574 143.443C104.544 143.583 104.546 143.729 104.577 143.868C104.609 144.008 104.67 144.14 104.757 144.254C108.507 149.254 120.277 173.184 123.757 180.324C124.023 180.876 124.067 181.509 123.881 182.093C123.695 182.676 123.293 183.167 122.757 183.464L105.157 193.644C104.712 193.902 104.197 194.011 103.686 193.955C103.175 193.899 102.695 193.682 102.317 193.334C99.827 191.034 94.017 185.534 86.947 177.834C77.457 167.514 66.037 147.764 62.027 137.834C58.017 127.904 58.027 127.834 56.077 118.434C51.597 124.144 52.927 137.524 53.287 140.494C53.3317 140.875 53.4766 141.237 53.707 141.544C55.187 143.544 60.967 151.194 62.287 153.484C63.807 156.114 62.287 158.184 61.177 157.644C58.4516 156.023 55.8176 154.254 53.287 152.344C53.0857 152.191 52.8495 152.091 52.5998 152.053C52.3502 152.014 52.0948 152.039 51.857 152.124C50.077 152.824 52.937 155.354 52.937 155.354C54.7379 156.736 56.6361 157.986 58.617 159.094C59.1374 159.341 59.5934 159.705 59.9492 160.158C60.3049 160.611 60.5506 161.14 60.667 161.704C60.779 162.116 60.7747 162.55 60.6547 162.96C60.5347 163.369 60.3036 163.738 59.987 164.024C56.297 167.344 50.637 165.714 47.507 164.404C45.8695 163.736 44.4743 162.584 43.507 161.104C41.7174 158.391 40.6535 155.265 40.417 152.024C40.6201 148.254 39.6789 144.51 37.717 141.284C23.587 114.204 41.027 90.1639 42.577 85.6239C51.577 82.4439 57.707 75.0039 64.647 71.0639L64.437 71.1839C71.357 67.1139 80.007 64.9939 87.287 58.7439C91.997 59.6739 122.377 57.0839 138.807 82.8439C140.636 86.1565 143.425 88.8375 146.807 90.5339C149.499 92.3561 151.679 94.8386 153.137 97.7439C153.938 99.3056 154.248 101.073 154.027 102.814C153.597 106.174 152.187 111.894 147.477 113.434C147.071 113.565 146.636 113.582 146.221 113.481C145.807 113.38 145.428 113.167 145.127 112.864C144.696 112.482 144.359 112.004 144.144 111.47C143.929 110.935 143.841 110.358 143.887 109.784C143.914 107.514 143.777 105.244 143.477 102.994C143.477 102.994 142.717 99.2739 141.227 100.444C141.033 100.607 140.883 100.816 140.791 101.052C140.698 101.287 140.666 101.543 140.697 101.794C141.057 105.254 142.497 110.594 141.257 111.304C140.017 112.014 138.627 112.824 137.097 110.194C135.777 107.904 131.987 99.0639 131.027 96.8039C130.877 96.4505 130.635 96.1434 130.327 95.9139C127.937 94.1239 116.997 86.2939 109.817 87.3339C117.017 93.7039 117.017 93.7139 123.667 102.164C130.317 110.614 141.737 130.364 145.957 143.734C149.107 153.734 150.957 161.484 151.737 164.784C151.851 165.285 151.802 165.81 151.597 166.281C151.392 166.752 151.042 167.146 150.597 167.404L132.997 177.584C132.471 177.891 131.847 177.987 131.253 177.851C130.658 177.716 130.138 177.359 129.797 176.854C125.347 170.274 110.477 148.144 108.007 142.394C107.951 142.263 107.868 142.145 107.763 142.048C107.658 141.952 107.534 141.879 107.399 141.834C107.263 141.79 107.12 141.775 106.978 141.79C106.836 141.806 106.7 141.851 106.577 141.924L105.837 142.354" fill="#F2F2F2"/>
<mask id="mask0_649_1393" style="mask-type:luminance" maskUnits="userSpaceOnUse" x="32" y="58" width="123" height="136">
<path d="M105.807 142.344L105.067 142.774C104.942 142.844 104.833 142.939 104.748 143.055C104.662 143.17 104.603 143.303 104.574 143.443C104.544 143.583 104.546 143.729 104.577 143.868C104.609 144.008 104.67 144.14 104.757 144.254C108.507 149.254 120.277 173.184 123.757 180.324C124.023 180.876 124.067 181.509 123.881 182.093C123.695 182.676 123.293 183.167 122.757 183.464L105.157 193.644C104.712 193.902 104.197 194.011 103.686 193.955C103.175 193.899 102.695 193.682 102.317 193.334C99.827 191.034 94.017 185.534 86.947 177.834C77.457 167.514 66.037 147.764 62.027 137.834C58.017 127.904 58.027 127.834 56.077 118.434C51.597 124.144 52.927 137.524 53.287 140.494C53.3317 140.875 53.4766 141.237 53.707 141.544C55.187 143.544 60.967 151.194 62.287 153.484C63.807 156.114 62.287 158.184 61.177 157.644C58.4516 156.023 55.8176 154.254 53.287 152.344C53.0857 152.191 52.8495 152.091 52.5998 152.053C52.3502 152.014 52.0948 152.039 51.857 152.124C50.077 152.824 52.937 155.354 52.937 155.354C54.7379 156.736 56.6361 157.986 58.617 159.094C59.1374 159.341 59.5934 159.705 59.9492 160.158C60.3049 160.611 60.5506 161.14 60.667 161.704C60.779 162.116 60.7747 162.55 60.6547 162.96C60.5347 163.369 60.3036 163.738 59.987 164.024C56.297 167.344 50.637 165.714 47.507 164.404C45.8695 163.736 44.4743 162.584 43.507 161.104C41.7174 158.391 40.6535 155.265 40.417 152.024C40.6201 148.254 39.6789 144.51 37.717 141.284C23.587 114.204 41.027 90.1639 42.577 85.6239C51.577 82.4439 57.707 75.0039 64.647 71.0639L64.437 71.1839C71.357 67.1139 80.007 64.9939 87.287 58.7439C91.997 59.6739 122.377 57.0839 138.807 82.8439C140.636 86.1565 143.425 88.8375 146.807 90.5339C149.499 92.3561 151.679 94.8386 153.137 97.7439C153.938 99.3056 154.248 101.073 154.027 102.814C153.597 106.174 152.187 111.894 147.477 113.434C147.071 113.565 146.636 113.582 146.221 113.481C145.807 113.38 145.428 113.167 145.127 112.864C144.696 112.482 144.359 112.004 144.144 111.47C143.929 110.935 143.841 110.358 143.887 109.784C143.914 107.514 143.777 105.244 143.477 102.994C143.477 102.994 142.717 99.2739 141.227 100.444C141.033 100.607 140.883 100.816 140.791 101.052C140.698 101.287 140.666 101.543 140.697 101.794C141.057 105.254 142.497 110.594 141.257 111.304C140.017 112.014 138.627 112.824 137.097 110.194C135.777 107.904 131.987 99.0639 131.027 96.8039C130.877 96.4505 130.635 96.1434 130.327 95.9139C127.937 94.1239 116.997 86.2939 109.817 87.3339C117.017 93.7039 117.017 93.7139 123.667 102.164C130.317 110.614 141.737 130.364 145.957 143.734C149.107 153.734 150.957 161.484 151.737 164.784C151.851 165.285 151.802 165.81 151.597 166.281C151.392 166.752 151.042 167.146 150.597 167.404L132.997 177.584C132.471 177.891 131.847 177.987 131.253 177.851C130.658 177.716 130.138 177.359 129.797 176.854C125.347 170.274 110.477 148.144 108.007 142.394C107.951 142.263 107.868 142.145 107.763 142.048C107.658 141.952 107.534 141.879 107.399 141.834C107.263 141.79 107.12 141.775 106.978 141.79C106.836 141.806 106.7 141.851 106.577 141.924L105.837 142.354" fill="white"/>
</mask>
<g mask="url(#mask0_649_1393)">
<path d="M115.618 55.4517L108.348 72.3328L115.181 75.2756L122.451 58.3946L115.618 55.4517Z" fill="#FFCB39"/>
<g style="mix-blend-mode:soft-light">
<path d="M87.2869 58.7438C87.2869 58.7438 120.787 64.3838 135.027 79.0838C146.527 95.3638 144.927 88.9938 146.677 91.0838C148.427 93.1738 155.677 95.7938 150.977 110.234C146.277 124.674 163.687 101.574 163.687 101.574L140.017 65.2338L90.2069 53.9138L87.8169 57.9138L87.2869 58.7438Z" fill="white"/>
</g>
<path d="M41.7077 110.522L22.8079 109.144L22.2501 116.793L41.15 118.171L41.7077 110.522Z" fill="#FFCB39"/>
<path d="M144.242 131.516L112.542 155.928L114.531 158.511L146.231 134.099L144.242 131.516Z" fill="#FFCB39"/>
<path d="M112.431 155.897L75.4663 171.208L76.7139 174.22L113.678 158.909L112.431 155.897Z" fill="#FFCB39"/>
<g style="mix-blend-mode:multiply">
<path d="M133.797 95.9437C133.797 95.9437 119.287 83.4837 102.897 83.0637C102.897 83.0637 125.337 102.924 131.457 117.064C134.677 123.544 154.067 159.764 151.727 171.064C163.187 160.264 133.797 95.9437 133.797 95.9437Z" fill="#DEDFE0"/>
</g>
<path d="M69.727 153.684C69.727 153.684 56.187 119.464 56.727 108.684C50.727 123.604 48.167 130.834 51.927 142.734C61.107 154.104 67.687 159.164 67.687 159.164L69.727 153.684Z" fill="#DEDFE0"/>
<g style="mix-blend-mode:multiply">
<path d="M104.947 142.874L101.087 145.104C100.954 145.18 100.838 145.283 100.748 145.407C100.657 145.531 100.593 145.672 100.56 145.821C100.527 145.971 100.526 146.126 100.556 146.276C100.587 146.427 100.648 146.569 100.737 146.694C103.787 151.014 116.157 168.834 124.307 185.614C124.387 185.784 124.509 185.93 124.662 186.039C124.814 186.148 124.992 186.217 125.178 186.238C125.365 186.259 125.553 186.232 125.726 186.159C125.899 186.087 126.051 185.971 126.167 185.824C127.36 184.309 127.957 182.409 127.847 180.484C127.833 180.318 127.782 180.157 127.697 180.014L106.447 143.284C106.302 143.031 106.063 142.845 105.782 142.768C105.5 142.692 105.2 142.729 104.947 142.874Z" fill="#DEDFE0"/>
</g>
<g style="mix-blend-mode:soft-light">
<path d="M41.8869 93.8539C34.4469 104.414 34.7869 116.724 34.7469 119.354C34.6975 125.055 35.5203 130.731 37.1869 136.184C40.5769 142.044 41.6469 146.594 41.1869 147.654C40.7269 148.714 35.1869 153.494 35.1869 153.494L19.5969 126.494L21.2469 100.494L41.9569 84.9539L41.8869 93.8539Z" fill="white"/>
</g>
</g>
<path d="M66.969 100.716C70.3106 98.7825 71.4523 94.5065 69.5192 91.1649C67.586 87.8233 63.31 86.6816 59.9684 88.6147C56.6269 90.5479 55.4851 94.8239 57.4182 98.1655C59.3514 101.507 63.6274 102.649 66.969 100.716Z" fill="url(#paint0_linear_649_1393)"/>
<mask id="mask1_649_1393" style="mask-type:luminance" maskUnits="userSpaceOnUse" x="56" y="87" width="15" height="15">
<path d="M66.969 100.716C70.3106 98.7825 71.4523 94.5065 69.5192 91.1649C67.586 87.8233 63.31 86.6816 59.9684 88.6147C56.6269 90.5479 55.4851 94.8239 57.4182 98.1655C59.3514 101.507 63.6274 102.649 66.969 100.716Z" fill="white"/>
</mask>
<g mask="url(#mask1_649_1393)">
<path d="M67.207 90.2641L63.957 92.1441L64.227 85.6641L60.437 87.8541L60.997 97.0141L63.797 95.3941L64.797 103.644L67.207 90.2641Z" fill="#5208BC"/>
</g>
<path d="M66.5869 90.1039L63.3369 91.9839L63.6069 85.5039L59.8169 87.6939L60.3769 96.8539L63.1769 95.2339L64.1769 103.484L66.5869 90.1039Z" fill="#FFCB39"/>
<path d="M107.227 114.514L81.0771 129.974C80.3962 130.383 79.6409 130.652 78.8551 130.767C78.0692 130.881 77.2685 130.839 76.4992 130.642C75.7299 130.444 75.0074 130.096 74.3736 129.618C73.7399 129.139 73.2074 128.54 72.8071 127.854L66.5671 117.344C66.1584 116.663 65.8889 115.908 65.7742 115.122C65.6596 114.336 65.7022 113.535 65.8994 112.766C66.0966 111.997 66.4445 111.274 66.9231 110.64C67.4016 110.007 68.0012 109.474 68.6871 109.074L94.8471 93.5639C95.528 93.1552 96.2832 92.8857 97.0691 92.7711C97.8549 92.6565 98.6557 92.699 99.425 92.8962C100.194 93.0934 100.917 93.4413 101.551 93.9199C102.184 94.3984 102.717 94.998 103.117 95.6839L109.357 106.234C109.767 106.916 110.037 107.672 110.152 108.46C110.267 109.247 110.224 110.049 110.025 110.82C109.827 111.59 109.478 112.314 108.997 112.948C108.517 113.582 107.915 114.114 107.227 114.514Z" fill="#D3D3D3"/>
<path d="M84.2742 113.948L75.2364 119.293C74.6707 119.628 74.4834 120.358 74.8179 120.923L74.823 120.932C75.1576 121.498 75.8874 121.685 76.4531 121.35L85.4908 116.005C86.0565 115.671 86.2439 114.941 85.9094 114.375L85.9043 114.367C85.5697 113.801 84.8399 113.614 84.2742 113.948Z" fill="#B5B5B5"/>
<path d="M84.7456 116.149C85.1972 115.882 85.3468 115.299 85.0797 114.848C84.8126 114.396 84.23 114.247 83.7784 114.514C83.3268 114.781 83.1772 115.363 83.4443 115.815C83.7114 116.267 84.294 116.416 84.7456 116.149Z" fill="#FFCB39"/>
<path d="M85.9683 116.813L76.9305 122.158C76.3648 122.493 76.1775 123.223 76.512 123.788L76.5171 123.797C76.8517 124.363 77.5814 124.55 78.1471 124.215L87.1849 118.87C87.7506 118.536 87.938 117.806 87.6035 117.24L87.5984 117.232C87.2638 116.666 86.534 116.479 85.9683 116.813Z" fill="#B5B5B5"/>
<path d="M79.875 122.917C80.3266 122.65 80.4762 122.067 80.2091 121.616C79.942 121.164 79.3594 121.014 78.9078 121.282C78.4562 121.549 78.3066 122.131 78.5737 122.583C78.8408 123.034 79.4234 123.184 79.875 122.917Z" fill="#FFCB39"/>
<path d="M87.6776 119.697L78.6398 125.042C78.0741 125.376 77.8867 126.106 78.2212 126.672L78.2263 126.68C78.5609 127.246 79.2907 127.433 79.8564 127.099L88.8942 121.754C89.4599 121.419 89.6472 120.69 89.3127 120.124L89.3076 120.115C88.973 119.55 88.2433 119.362 87.6776 119.697Z" fill="#B5B5B5"/>
<path d="M85.6848 123.357C86.1364 123.09 86.286 122.507 86.0189 122.055C85.7518 121.604 85.1692 121.454 84.7176 121.721C84.266 121.988 84.1164 122.571 84.3835 123.023C84.6506 123.474 85.2332 123.624 85.6848 123.357Z" fill="#FFCB39"/>
<path d="M101.718 103.625L91.8621 109.454L92.1064 109.867L101.962 104.038L101.718 103.625Z" fill="#B5B5B5"/>
<path d="M102.123 104.288L92.2676 110.116L92.5119 110.53L102.367 104.701L102.123 104.288Z" fill="#B5B5B5"/>
<path d="M102.523 104.97L92.668 110.798L92.9123 111.211L102.768 105.383L102.523 104.97Z" fill="#B5B5B5"/>
<path d="M102.938 105.472L93.0913 111.312L93.3361 111.724L103.183 105.885L102.938 105.472Z" fill="#B5B5B5"/>
<path d="M103.315 106.311L93.46 112.139L93.7043 112.553L103.56 106.724L103.315 106.311Z" fill="#B5B5B5"/>
<path d="M103.711 106.984L93.8555 112.812L94.0998 113.226L103.955 107.397L103.711 106.984Z" fill="#B5B5B5"/>
<path d="M104.135 107.469L94.2883 113.308L94.5331 113.721L104.38 107.881L104.135 107.469Z" fill="#B5B5B5"/>
<path d="M104.538 108.154L94.6907 113.994L94.9355 114.407L104.782 108.567L104.538 108.154Z" fill="#B5B5B5"/>
<path d="M104.933 108.827L95.0864 114.666L95.3312 115.079L105.178 109.24L104.933 108.827Z" fill="#B5B5B5"/>
<path d="M105.329 109.489L95.4819 115.328L95.7267 115.741L105.574 109.902L105.329 109.489Z" fill="#B5B5B5"/>
<path d="M105.704 110.343L95.8486 116.172L96.093 116.585L105.948 110.756L105.704 110.343Z" fill="#B5B5B5"/>
<path d="M106.091 111.011L96.2354 116.84L96.4797 117.253L106.335 111.424L106.091 111.011Z" fill="#B5B5B5"/>
<path d="M95.2244 97.7635L72.2168 111.37C70.9713 112.107 70.5588 113.714 71.2954 114.959L71.3004 114.968C72.037 116.213 73.6438 116.626 74.8893 115.889L97.8969 102.282C99.1424 101.546 99.5549 99.939 98.8184 98.6936L98.8133 98.6849C98.0767 97.4395 96.4699 97.0269 95.2244 97.7635Z" fill="url(#paint1_linear_649_1393)"/>
<path d="M144.644 86.9543L128.744 97.2642L130.464 99.9156L146.364 89.6057L144.644 86.9543Z" fill="#D3D3D3"/>
<path d="M55.0508 139.868L37.9255 147.981L39.2785 150.837L56.4038 142.723L55.0508 139.868Z" fill="#D3D3D3"/>
<path d="M132.191 112.98L67.0154 150.792L70.1868 156.259L135.363 118.447L132.191 112.98Z" fill="#D3D3D3"/>
<path d="M103.164 128.526L94.5229 133.539C93.8923 133.905 93.6777 134.713 94.0435 135.343L97.0192 140.473C97.3851 141.103 98.1928 141.318 98.8234 140.952L107.465 135.939C108.095 135.573 108.31 134.765 107.944 134.135L104.968 129.006C104.602 128.375 103.795 128.16 103.164 128.526Z" fill="#B5B5B5"/>
<path d="M102.466 137.267C103.866 136.455 104.342 134.662 103.53 133.262C102.718 131.863 100.925 131.386 99.5253 132.198C98.1256 133.01 97.6493 134.803 98.4613 136.203C99.2733 137.603 101.066 138.079 102.466 137.267Z" fill="#FCFCFC"/>
<path d="M132.407 180.074L142.937 196.474C143.894 197.738 145.108 198.786 146.499 199.548C147.89 200.309 149.426 200.768 151.007 200.894C152.46 201.034 153.925 200.963 155.357 200.684C157.329 200.295 159.222 199.578 160.957 198.564C170.117 193.314 178.607 188.474 169.547 181.064C167.89 179.716 165.963 178.737 163.897 178.194C163.027 177.964 162.167 177.764 161.387 177.584C160.002 177.28 158.697 176.686 157.559 175.839C156.421 174.993 155.476 173.914 154.787 172.674L152.677 168.924L132.407 180.074Z" fill="#DEDFE0"/>
<mask id="mask2_649_1393" style="mask-type:luminance" maskUnits="userSpaceOnUse" x="132" y="168" width="42" height="33">
<path d="M132.407 180.074L142.937 196.474C143.894 197.738 145.108 198.786 146.499 199.548C147.89 200.309 149.426 200.768 151.007 200.894C152.46 201.034 153.925 200.963 155.357 200.684C157.329 200.295 159.222 199.578 160.957 198.564C170.117 193.314 178.607 188.474 169.547 181.064C167.89 179.716 165.963 178.737 163.897 178.194C163.027 177.964 162.167 177.764 161.387 177.584C160.002 177.28 158.697 176.686 157.559 175.839C156.421 174.993 155.476 173.914 154.787 172.674L152.677 168.924L132.407 180.074Z" fill="white"/>
</mask>
<g mask="url(#mask2_649_1393)">
<path d="M164.284 181.519C166.98 179.959 167.901 176.509 166.342 173.813C164.782 171.117 161.332 170.196 158.635 171.755C155.939 173.315 155.018 176.765 156.578 179.462C158.137 182.158 161.588 183.079 164.284 181.519Z" fill="#C4C4C4"/>
<path d="M134.017 199.034L140.517 193.184C141.474 194.449 142.688 195.496 144.079 196.258C145.47 197.02 147.006 197.478 148.587 197.604C150.04 197.744 151.505 197.673 152.937 197.394C154.909 197.005 156.802 196.289 158.537 195.274C167.697 190.024 176.187 185.184 167.127 177.774C165.47 176.426 163.543 175.448 161.477 174.904C160.607 174.674 159.747 174.474 158.967 174.294C156.167 173.684 175.237 174.834 173.827 172.294L180.937 182.774L177.077 192.344L167.077 201.244L155.857 206.174L148.857 206.604L142.467 204.604L138.027 201.434L134.017 199.034Z" fill="#C4C4C4"/>
</g>
<path d="M133.882 180.354L152.631 169.508C153.816 168.822 154.221 167.305 153.535 166.119C152.85 164.934 151.333 164.529 150.147 165.215L131.398 176.061C130.213 176.747 129.808 178.264 130.494 179.45C131.179 180.635 132.696 181.04 133.882 180.354Z" fill="#D3D3D3"/>
<path d="M140.976 180.918L140.015 181.474L144.988 190.069L145.949 189.513L140.976 180.918Z" fill="#ADADAD"/>
<path d="M145.973 178.036L145.012 178.592L149.985 187.187L150.946 186.632L145.973 178.036Z" fill="#ADADAD"/>
<path d="M143.479 179.48L142.518 180.035L147.491 188.631L148.452 188.075L143.479 179.48Z" fill="#ADADAD"/>
<path d="M125.507 184.064L134.507 201.374C135.126 202.834 135.429 204.409 135.397 205.994C135.364 207.58 134.996 209.141 134.317 210.574C133.712 211.905 132.917 213.141 131.957 214.244C130.637 215.76 129.072 217.045 127.327 218.044C118.207 223.374 109.777 228.314 107.877 216.774C107.535 214.665 107.647 212.506 108.207 210.444C108.447 209.574 108.687 208.734 108.937 207.964C109.36 206.609 109.489 205.18 109.317 203.771C109.144 202.363 108.674 201.007 107.937 199.794L105.737 196.104L125.507 184.064Z" fill="#DEDFE0"/>
<mask id="mask3_649_1393" style="mask-type:luminance" maskUnits="userSpaceOnUse" x="105" y="184" width="31" height="40">
<path d="M125.507 184.064L134.507 201.374C135.126 202.834 135.429 204.409 135.397 205.994C135.364 207.58 134.996 209.141 134.317 210.574C133.712 211.905 132.917 213.141 131.957 214.244C130.637 215.76 129.072 217.045 127.327 218.044C118.207 223.374 109.777 228.314 107.877 216.774C107.535 214.665 107.647 212.506 108.207 210.444C108.447 209.574 108.687 208.734 108.937 207.964C109.36 206.609 109.489 205.18 109.317 203.771C109.144 202.363 108.674 201.007 107.937 199.794L105.737 196.104L125.507 184.064Z" fill="white"/>
</mask>
<g mask="url(#mask3_649_1393)">
<path d="M110.89 212.408C113.586 210.848 114.507 207.398 112.947 204.701C111.388 202.005 107.938 201.084 105.241 202.644C102.545 204.204 101.624 207.654 103.184 210.35C104.743 213.046 108.194 213.967 110.89 212.408Z" fill="#C4C4C4"/>
<path d="M141.147 194.904L132.837 197.624C133.456 199.084 133.759 200.659 133.727 202.244C133.694 203.83 133.326 205.391 132.647 206.824C132.042 208.155 131.247 209.391 130.287 210.494C128.967 212.01 127.402 213.295 125.657 214.294C116.537 219.624 108.107 224.564 106.207 213.024C105.865 210.915 105.977 208.756 106.537 206.694C106.777 205.824 107.017 204.984 107.267 204.214C108.137 201.484 99.627 218.584 98.157 216.124L103.707 227.514L113.897 228.914L126.577 224.704L136.447 217.434L140.337 211.534L141.757 204.974L141.227 199.544L141.147 194.904Z" fill="#C4C4C4"/>
</g>
<path d="M122.518 181.172L103.769 192.018C102.584 192.704 102.179 194.221 102.864 195.406C103.55 196.592 105.067 196.997 106.253 196.311L125.002 185.465C126.187 184.779 126.592 183.262 125.906 182.076C125.221 180.891 123.703 180.486 122.518 181.172Z" fill="#D3D3D3"/>
<path d="M126.945 200.52L127.906 199.964L122.934 191.369L121.973 191.924L126.945 200.52Z" fill="#ADADAD"/>
<path d="M121.957 203.399L122.918 202.844L117.945 194.248L116.985 194.804L121.957 203.399Z" fill="#ADADAD"/>
<path d="M124.066 201.033L125.031 200.478L120.066 191.839L119.101 192.394L124.066 201.033Z" fill="#ADADAD"/>
<path d="M3.63555 65.8843L8.71655 62.9448L8.35601 62.3216L3.275 65.261L3.63555 65.8843Z" fill="#C6C6C6"/>
<path d="M9.9135 51.5226L19.0435 67.4088C17.3591 68.3768 15.3592 68.6361 13.4836 68.1296C11.6081 67.6231 10.0105 66.3922 9.0425 64.7078L7.2175 61.5323C6.24946 59.8479 5.99019 57.848 6.49672 55.9724C7.00326 54.0969 8.23411 52.4993 9.9185 51.5313L9.9135 51.5226Z" fill="#C6C6C6"/>
<mask id="mask4_649_1393" style="mask-type:luminance" maskUnits="userSpaceOnUse" x="6" y="51" width="14" height="18">
<path d="M9.9135 51.5224L19.0435 67.4086C17.3591 68.3766 15.3592 68.6359 13.4836 68.1293C11.6081 67.6228 10.0105 66.392 9.0425 64.7076L7.2175 61.5321C6.24946 59.8477 5.99019 57.8477 6.49672 55.9722C7.00326 54.0966 8.23411 52.4991 9.9185 51.5311L9.9135 51.5224Z" fill="white"/>
</mask>
<g mask="url(#mask4_649_1393)">
<path d="M47.7047 75.1183C63.1785 70.0368 71.3419 52.5779 65.9381 36.1228C60.5343 19.6677 43.6097 10.4477 28.1358 15.5292C12.662 20.6108 4.49856 38.0697 9.90234 54.5248C15.3061 70.9798 32.2308 80.1999 47.7047 75.1183Z" fill="#B2B2B2"/>
<path d="M9.08273 64.4504C9.51297 64.2014 9.4582 63.3021 8.9604 62.4416C8.46259 61.5811 7.71025 61.0853 7.28001 61.3342C6.84976 61.5831 6.90453 62.4825 7.40234 63.343C7.90014 64.2035 8.65248 64.6993 9.08273 64.4504Z" fill="#B2B2B2"/>
</g>
<path d="M90.0712 15.0445L84.9902 17.9839L85.3508 18.6071L90.4318 15.6677L90.0712 15.0445Z" fill="#C6C6C6"/>
<path d="M83.8101 29.6389L74.6663 13.8333C76.3422 12.8638 78.3345 12.5997 80.2051 13.0992C82.0756 13.5986 83.6711 14.8207 84.6406 16.4965L86.4734 19.6646C87.4429 21.3405 87.707 23.3328 87.2075 25.2033C86.708 27.0739 85.486 28.6694 83.8101 29.6389Z" fill="#C6C6C6"/>
<mask id="mask5_649_1393" style="mask-type:luminance" maskUnits="userSpaceOnUse" x="74" y="12" width="14" height="18">
<path d="M83.8101 29.6392L74.6663 13.8335C76.3422 12.864 78.3345 12.5999 80.2051 13.0994C82.0756 13.5989 83.6711 14.8209 84.6406 16.4968L86.4734 19.6648C87.4429 21.3407 87.707 23.333 87.2075 25.2036C86.708 27.0741 85.486 28.6697 83.8101 29.6392Z" fill="white"/>
</mask>
<g mask="url(#mask5_649_1393)">
<path d="M71.7052 62.6392C85.6882 54.5498 90.0646 35.9629 81.4802 21.1242C72.8958 6.28549 54.6013 0.814068 40.6183 8.90344C26.6353 16.9928 22.2588 35.5797 30.8433 50.4184C39.4277 65.2571 57.7222 70.7286 71.7052 62.6392Z" fill="#B2B2B2"/>
<path d="M86.4406 19.5917C86.8709 19.3428 86.8161 18.4435 86.3183 17.583C85.8205 16.7225 85.0682 16.2267 84.6379 16.4756C84.2077 16.7245 84.2624 17.6238 84.7602 18.4843C85.2581 19.3448 86.0104 19.8406 86.4406 19.5917Z" fill="#B2B2B2"/>
</g>
<path d="M66.5186 74.8672C85.1519 64.1584 91.576 40.3719 80.8672 21.7386C70.1584 3.10532 46.3719 -3.31877 27.7386 7.39003C9.10528 18.0988 2.6812 41.8853 13.39 60.5186C24.0988 79.1519 47.8853 85.576 66.5186 74.8672Z" fill="#E8E8E8"/>
<mask id="mask6_649_1393" style="mask-type:luminance" maskUnits="userSpaceOnUse" x="8" y="2" width="79" height="79">
<path d="M66.5186 74.8672C85.1519 64.1584 91.576 40.3719 80.8672 21.7386C70.1584 3.10532 46.3719 -3.31877 27.7386 7.39003C9.10528 18.0988 2.6812 41.8853 13.39 60.5186C24.0988 79.1519 47.8853 85.576 66.5186 74.8672Z" fill="white"/>
</mask>
<g mask="url(#mask6_649_1393)">
<path d="M68.5734 73.6805C86.1737 63.5654 91.7603 40.2602 81.0515 21.6269C70.3427 2.9936 47.3937 -3.91178 29.7934 6.20331C12.1931 16.3184 6.60649 39.6236 17.3153 58.2569C28.0241 76.8902 50.9731 83.7956 68.5734 73.6805Z" fill="#F2F2F2"/>
<path d="M68.4212 73.152C85.894 63.0438 91.3641 39.8207 80.6392 21.2819C69.9142 2.74304 47.0554 -4.09129 29.5826 6.01697C12.1098 16.1252 6.63963 39.3483 17.3646 57.8871C28.0896 76.4259 50.9484 83.2603 68.4212 73.152Z" fill="white"/>
<path d="M67.0597 73.9369C83.7771 64.2656 88.635 41.3968 77.91 22.8579C67.185 4.31908 44.9385 -2.86948 28.2211 6.80181C11.5036 16.4731 6.64573 39.3419 17.3707 57.8808C28.0957 76.4196 50.3422 83.6082 67.0597 73.9369Z" fill="#F2F2F2"/>
</g>
<path d="M71.2869 26.834C79.0669 40.284 74.8869 55.934 61.4369 63.714C47.9869 71.494 30.3869 68.464 22.6069 55.014C14.8269 41.564 20.9769 24.774 34.4269 17.014C47.8769 9.25399 63.5369 13.344 71.2869 26.834Z" fill="#7F1BBF"/>
<path d="M70.897 26.064C78.427 39.064 75.157 53.764 63.197 60.684C57.2054 64.1112 50.1004 65.0264 43.4359 63.2294C36.7713 61.4325 31.0895 57.0696 27.6328 51.0949C24.1762 45.1202 23.2261 38.0198 24.9903 31.3465C26.7545 24.6732 31.0894 18.97 37.047 15.484C49.007 8.56401 63.367 13.054 70.897 26.064Z" fill="url(#paint2_linear_649_1393)"/>
<path d="M48.4469 13.094C57.5769 13.094 66.1669 17.934 71.3169 26.834C79.0969 40.284 74.9169 55.934 61.4669 63.714C56.7305 66.4642 51.3538 67.9196 45.8769 67.934C36.5369 67.934 27.5669 63.594 22.6069 55.014C14.8269 41.564 20.9769 24.774 34.4269 17.014C38.6687 14.5049 43.4988 13.1628 48.4269 13.124M48.4269 8.124C42.618 8.17262 36.9241 9.74871 31.9169 12.694C15.5769 22.124 9.44691 42.244 18.2869 57.514C23.8669 67.164 34.1869 72.934 45.8869 72.934C52.2383 72.9188 58.4738 71.2323 63.9669 68.044C67.6557 65.9833 70.8999 63.2124 73.5122 59.8912C76.1245 56.5701 78.0532 52.7645 79.1869 48.694C80.2328 44.6024 80.4585 40.3443 79.8509 36.1652C79.2433 31.986 77.8145 27.9684 75.6469 24.344C69.7669 14.174 59.6469 8.104 48.4469 8.104L48.4269 8.124Z" fill="#D8D8D8"/>
<path d="M43.9737 79.611L82.2327 57.4776C83.1059 56.9679 84.0711 56.6356 85.0731 56.4999C86.075 56.3641 87.0939 56.4275 88.0712 56.6864C89.0486 56.9453 89.9652 57.3947 90.7685 58.0087C91.5718 58.6228 92.2459 59.3894 92.7522 60.2645L93.6285 61.7793L42.0481 91.6193L41.1718 90.1046C40.1518 88.3415 39.874 86.2454 40.3994 84.2775C40.9249 82.3096 42.2106 80.631 43.9737 79.611Z" fill="#C6C6C6"/>
<path d="M39.811 80.4667L85.0553 54.2922C85.8856 53.8148 86.8702 53.6829 87.7968 53.9248C88.7235 54.1668 89.5179 54.7632 90.0088 55.5856L92.9282 60.6319L41.3737 90.4569L38.4543 85.4106C37.9853 84.5736 37.8647 83.5856 38.1186 82.6603C38.3725 81.7351 38.9805 80.947 39.811 80.4667Z" fill="#D8D8D8"/>
<path d="M45.1117 85.7336C46.1921 85.1086 46.5613 83.7261 45.9363 82.6457C45.3112 81.5653 43.9287 81.1961 42.8483 81.8212C41.7679 82.4462 41.3988 83.8287 42.0238 84.9091C42.6488 85.9895 44.0313 86.3587 45.1117 85.7336Z" fill="#B5B5B5"/>
<path d="M52.0768 81.7051C53.1572 81.08 53.5264 79.6975 52.9013 78.6171C52.2763 77.5367 50.8938 77.1676 49.8134 77.7926C48.733 78.4176 48.3639 79.8002 48.9889 80.8805C49.6139 81.9609 50.9964 82.3301 52.0768 81.7051Z" fill="#B5B5B5"/>
<path d="M59.0434 77.6814C60.1238 77.0564 60.4929 75.6738 59.8679 74.5934C59.2429 73.513 57.8604 73.1439 56.78 73.7689C55.6996 74.394 55.3304 75.7765 55.9554 76.8569C56.5805 77.9373 57.963 78.3064 59.0434 77.6814Z" fill="#B5B5B5"/>
<path d="M66.0085 73.6428C67.0889 73.0178 67.458 71.6353 66.833 70.5549C66.208 69.4745 64.8254 69.1053 63.745 69.7304C62.6647 70.3554 62.2955 71.7379 62.9205 72.8183C63.5456 73.8987 64.9281 74.2678 66.0085 73.6428Z" fill="#B5B5B5"/>
<path d="M72.965 69.6194C74.0454 68.9944 74.4146 67.6118 73.7895 66.5314C73.1645 65.451 71.782 65.0819 70.7016 65.7069C69.6212 66.3319 69.252 67.7145 69.8771 68.7949C70.5021 69.8753 71.8846 70.2444 72.965 69.6194Z" fill="#B5B5B5"/>
<path d="M79.9401 65.5908C81.0205 64.9658 81.3897 63.5833 80.7646 62.5029C80.1396 61.4225 78.7571 61.0533 77.6767 61.6784C76.5963 62.3034 76.2271 63.6859 76.8522 64.7663C77.4772 65.8467 78.8597 66.2158 79.9401 65.5908Z" fill="#B5B5B5"/>
<path d="M86.8964 61.5571C87.9768 60.9321 88.3459 59.5496 87.7209 58.4692C87.0959 57.3888 85.7134 57.0196 84.633 57.6447C83.5526 58.2697 83.1834 59.6522 83.8085 60.7326C84.4335 61.813 85.816 62.1821 86.8964 61.5571Z" fill="#B5B5B5"/>
</g>
<defs>
<linearGradient id="paint0_linear_649_1393" x1="57.4182" y1="98.1655" x2="69.5278" y2="91.1599" gradientUnits="userSpaceOnUse">
<stop stop-color="#9E23CC"/>
<stop offset="1" stop-color="#4619BF"/>
</linearGradient>
<linearGradient id="paint1_linear_649_1393" x1="71.3004" y1="114.968" x2="98.8098" y2="98.6986" gradientUnits="userSpaceOnUse">
<stop stop-color="#9E23CC"/>
<stop offset="1" stop-color="#4619BF"/>
</linearGradient>
<linearGradient id="paint2_linear_649_1393" x1="27.6004" y1="51.1162" x2="70.9058" y2="26.0634" gradientUnits="userSpaceOnUse">
<stop stop-color="#9E23CC"/>
<stop offset="1" stop-color="#4619BF"/>
</linearGradient>
<clipPath id="clip0_649_1393">
<rect width="177.65" height="227.57" fill="white"/>
</clipPath>
</defs>
</svg>
