<svg width="27" height="27" viewBox="0 0 27 27" fill="none" xmlns="http://www.w3.org/2000/svg">
<path d="M1.6415 8.49307C1.6415 8.04041 1.27404 7.67346 0.820749 7.67346C0.367456 7.67346 0 8.04041 0 8.49307C0 8.94573 0.367456 9.31251 0.820749 9.31251C1.27404 9.31251 1.6415 8.94573 1.6415 8.49307ZM0.784903 8.09257C0.778634 8.09498 0.771722 8.09787 0.763846 8.10044C0.730894 8.11264 0.690065 8.13046 0.65213 8.15213C0.614034 8.17347 0.580761 8.20044 0.549898 8.21617C0.520161 8.23335 0.492514 8.24218 0.492514 8.24218L0.480619 8.24619C0.427413 8.26288 0.370671 8.23367 0.353632 8.1807C0.348649 8.16497 0.347685 8.14843 0.350257 8.13335C0.350257 8.13335 0.356526 8.0953 0.388835 8.0518C0.403945 8.02949 0.426449 8.00718 0.452971 7.98647C0.479976 7.96609 0.51132 7.94859 0.543951 7.93318C0.576742 7.91873 0.61098 7.9075 0.643611 7.90092C0.676563 7.89401 0.707586 7.89145 0.733787 7.89145C0.746647 7.89145 0.760149 7.89209 0.771722 7.89305C0.783939 7.89369 0.792458 7.89498 0.798084 7.89642C0.810943 7.89963 0.818177 7.90124 0.818177 7.90124C0.868168 7.91344 0.898709 7.96336 0.886653 8.01344C0.878616 8.04618 0.853701 8.0709 0.823321 8.08005C0.823321 8.08005 0.816409 8.08246 0.80371 8.08631C0.796798 8.0876 0.790208 8.09001 0.784903 8.09257Z" fill="#7900B0"/>
<path d="M24.6394 22.351C23.6534 22.351 22.8545 23.0251 22.8545 23.8566C22.8545 24.6884 23.6534 25.3623 24.6394 25.3623C25.6251 25.3623 26.4243 24.6884 26.4243 23.8566C26.4243 23.0251 25.6251 22.351 24.6394 22.351ZM24.4629 23.003C24.4629 23.003 24.4388 23.0078 24.3957 23.0161C24.3851 23.0181 24.3732 23.02 24.3604 23.0222C24.3498 23.0254 24.3385 23.0293 24.3263 23.0332C24.3028 23.0399 24.2761 23.0463 24.2453 23.0595C24.2302 23.0653 24.2144 23.071 24.1983 23.0768C24.1826 23.0842 24.1665 23.0916 24.1498 23.0996C24.1331 23.107 24.1164 23.1153 24.1003 23.1259C24.0836 23.1349 24.0665 23.1446 24.0495 23.1542C24.0173 23.1773 23.9829 23.1991 23.9521 23.2261C23.919 23.2505 23.891 23.2816 23.8605 23.3102C23.8351 23.343 23.8048 23.3715 23.7827 23.4059C23.7569 23.4373 23.7396 23.4736 23.7187 23.506C23.7029 23.5414 23.6817 23.5728 23.6688 23.6062C23.6621 23.6226 23.6544 23.638 23.647 23.6534C23.6406 23.6691 23.6348 23.6842 23.6293 23.6993C23.6158 23.7282 23.6065 23.7561 23.5978 23.7812C23.5936 23.7934 23.5888 23.8049 23.584 23.8162C23.5808 23.8271 23.5785 23.8377 23.5753 23.8467C23.5631 23.8842 23.5531 23.9067 23.5531 23.9067L23.547 23.9208C23.5239 23.9735 23.4625 23.9972 23.4101 23.9744C23.3802 23.9613 23.3596 23.9356 23.3515 23.9067C23.3515 23.9067 23.3442 23.8797 23.3364 23.8309C23.3323 23.8062 23.3294 23.7764 23.3303 23.7423C23.3303 23.7076 23.33 23.6682 23.3377 23.6264C23.3413 23.6056 23.3445 23.5831 23.349 23.5603C23.3554 23.5385 23.3615 23.5153 23.3692 23.4916C23.3814 23.4438 23.4065 23.3982 23.429 23.3491C23.4573 23.3035 23.4846 23.2547 23.5206 23.211C23.5534 23.1651 23.593 23.1237 23.6332 23.0829C23.6766 23.0457 23.7187 23.0068 23.7656 22.9763C23.8103 22.942 23.8611 22.9192 23.9074 22.8932C23.9566 22.8726 24.0025 22.8498 24.0498 22.8383C24.0733 22.8315 24.0958 22.8251 24.1176 22.8187C24.1398 22.8142 24.1614 22.8107 24.1823 22.8071C24.2228 22.7994 24.2636 22.7965 24.299 22.7949C24.317 22.794 24.3334 22.7933 24.3485 22.7927C24.3616 22.7937 24.3735 22.7949 24.3848 22.7956C24.4282 22.7994 24.4529 22.8017 24.4529 22.8017C24.5089 22.8068 24.55 22.8566 24.5446 22.9124C24.5404 22.9584 24.506 22.9943 24.4629 23.003ZM24.8455 23.0052C24.8329 23.0052 24.8204 23.003 24.8079 22.9978L24.8014 22.9953C24.7494 22.9757 24.7233 22.9173 24.7432 22.8656C24.7629 22.8136 24.821 22.7872 24.8734 22.8071L24.8831 22.811C24.9349 22.8315 24.9599 22.8903 24.9394 22.9417C24.9236 22.9811 24.8857 23.0052 24.8455 23.0052Z" fill="#7900B0"/>
<path d="M23.1557 4.171C22.74 4.07004 22.3237 4.02429 21.915 4.02895V4.02862C21.9128 4.02862 21.9109 4.02862 21.9089 4.02895C21.7488 4.03087 21.5903 4.04114 21.4331 4.05816C17.0799 4.28208 17.2674 2.92763 15.3352 1.18922C15.3079 1.16434 15.2799 1.13995 15.2523 1.11523C15.2185 1.08601 15.1848 1.0568 15.1497 1.02726C14.6418 0.608631 14.0339 0.29514 13.351 0.129004C11.0595 -0.428796 8.75124 0.872362 8.01472 3.06536L8.01311 3.066C7.56368 4.32606 7.13771 4.94117 5.57434 5.30474C4.72706 5.45996 4.00742 6.09545 3.79042 6.98536C3.73384 7.21635 3.71568 7.44781 3.73127 7.67334C3.74172 8.74576 4.44561 9.70983 2.8377 10.685C2.78771 10.7126 2.73836 10.7412 2.68966 10.771C2.68789 10.772 2.68661 10.7728 2.685 10.7737L2.68532 10.7741C1.83178 11.2993 1.17692 12.1471 0.920855 13.1968C0.478332 15.0095 1.36884 16.8343 2.96549 17.6445L2.96485 17.6449C2.97466 17.65 2.9843 17.6545 2.99378 17.6593C3.02802 17.6763 3.06226 17.693 3.09714 17.7091C4.52726 18.3942 6.11025 18.8969 5.69087 21.5015C5.68396 21.5384 5.6785 21.575 5.67351 21.6119C5.67287 21.6145 5.67255 21.617 5.67223 21.6203L5.67255 21.6199C5.52836 22.7285 6.23933 23.7914 7.35246 24.0621C7.73262 24.1548 8.1139 24.1433 8.46609 24.0466V24.047C8.46673 24.0466 8.46705 24.0466 8.46769 24.0463C8.60272 24.0091 8.73372 23.9593 8.85846 23.8983C11.3861 22.9808 12.2551 23.5673 13.5086 25.0447C13.5696 25.1224 13.633 25.1988 13.6995 25.2724C13.7005 25.2733 13.7011 25.2743 13.7021 25.2756C14.2608 25.892 15.0044 26.3533 15.874 26.5652C18.1878 27.1283 20.5201 25.7115 21.0837 23.4017C21.0972 23.3468 21.1084 23.2916 21.1194 23.2367L21.1232 23.2399C21.1258 23.2209 21.1284 23.2026 21.1309 23.184C21.1557 23.0546 21.1731 22.9259 21.1859 22.7975C21.4614 20.9217 21.7604 20.1926 23.8337 20.6973L23.8266 20.6873C24.9585 20.8658 26.057 20.1502 26.3335 19.0186C26.5013 18.3296 26.3274 17.6381 25.9211 17.1203C25.8876 17.0779 25.8535 17.0365 25.8172 16.9967C24.983 15.9816 23.862 14.0271 25.4822 12.5329H25.4813C26.1146 11.9078 26.5875 11.1057 26.8138 10.1787C27.4648 7.5109 25.8272 4.82126 23.1557 4.171ZM7.98643 23.4466C7.97421 23.4733 7.95412 23.4938 7.93017 23.5067C7.93017 23.5067 7.8752 23.5368 7.78534 23.5439C7.7405 23.5494 7.68777 23.5465 7.63216 23.5372C7.57686 23.5269 7.51964 23.5089 7.4637 23.4868C7.43637 23.4749 7.40905 23.462 7.38301 23.4479C7.35664 23.4351 7.33301 23.4181 7.30955 23.4033C7.26357 23.3715 7.22371 23.3375 7.19301 23.3057C7.1779 23.2906 7.16311 23.2739 7.15089 23.2595C7.13771 23.2444 7.12919 23.2325 7.12357 23.2238C7.11135 23.2049 7.10412 23.1943 7.10412 23.1943C7.06763 23.1368 7.08403 23.0607 7.14141 23.0241C7.18385 22.9969 7.23657 22.9988 7.27595 23.0251C7.27595 23.0251 7.28688 23.0325 7.30569 23.045C7.31517 23.0521 7.32578 23.0591 7.33591 23.064C7.34652 23.0704 7.35729 23.0771 7.37207 23.0851C7.42753 23.1176 7.50244 23.1545 7.58056 23.1798C7.60033 23.1856 7.61946 23.193 7.63907 23.1975C7.65852 23.203 7.67829 23.2059 7.69677 23.211C7.73423 23.2187 7.76943 23.2274 7.80045 23.2351C7.83131 23.2428 7.858 23.2505 7.87713 23.2563C7.89625 23.262 7.90783 23.2672 7.90783 23.2672L7.92262 23.2739C7.98804 23.3041 8.01665 23.3815 7.98643 23.4466ZM13.6841 1.66917C13.6413 1.7597 13.5497 1.81091 13.4554 1.80658C13.4554 1.80658 13.3877 1.80337 13.27 1.79422C13.2414 1.79245 13.2072 1.78731 13.1747 1.78619C13.1437 1.78699 13.1101 1.78731 13.0742 1.78796C13.0387 1.78892 13.0017 1.78796 12.963 1.78699C12.9228 1.78763 12.8783 1.79149 12.8339 1.79373C12.7888 1.79711 12.7423 1.79775 12.6942 1.8024C12.6467 1.80834 12.5975 1.81412 12.5468 1.82006C12.4962 1.82375 12.4448 1.83322 12.3929 1.84414C12.3408 1.85489 12.2874 1.86051 12.234 1.87367C12.1278 1.90224 12.0178 1.9244 11.9105 1.96404C11.8008 1.99374 11.6962 2.04462 11.5895 2.08507C11.4861 2.13564 11.3821 2.18235 11.286 2.24094L11.2128 2.28203C11.1892 2.29648 11.1669 2.31253 11.1437 2.3273C11.0981 2.35828 11.0519 2.38653 11.0082 2.41719C10.9262 2.48508 10.839 2.54111 10.7649 2.60515C10.7271 2.63645 10.6869 2.66326 10.6499 2.69199C10.6138 2.72121 10.5802 2.75106 10.5446 2.77707C10.4729 2.82907 10.4107 2.88124 10.3521 2.92667C10.3219 2.94866 10.2934 2.96969 10.2658 2.98847C10.2412 3.00918 10.2164 3.02763 10.1947 3.04433C10.1486 3.07691 10.1127 3.10388 10.0848 3.12025C10.0584 3.13775 10.0423 3.14626 10.0423 3.14626L10.0137 3.16199C9.88913 3.22908 9.73354 3.18302 9.66602 3.05845C9.63998 3.01046 9.63114 2.95781 9.63709 2.90725C9.63709 2.90725 9.63902 2.88782 9.64657 2.85331C9.65252 2.81752 9.66667 2.76824 9.68387 2.70307C9.69367 2.67161 9.70412 2.63597 9.71762 2.59825C9.73289 2.56149 9.75122 2.52297 9.77067 2.48123C9.8115 2.39905 9.85795 2.30434 9.92675 2.21461C9.95874 2.16758 9.99555 2.12119 10.0324 2.07191C10.0735 2.02697 10.1164 1.98026 10.1627 1.93419C10.2513 1.83788 10.3643 1.75762 10.4771 1.67158C10.5358 1.63113 10.5977 1.59357 10.6592 1.55376C10.6901 1.53482 10.7208 1.51411 10.753 1.49629C10.7859 1.47928 10.8192 1.46243 10.8525 1.44541C10.9193 1.41283 10.9841 1.3743 11.0545 1.34669C11.1248 1.31876 11.1948 1.29083 11.2652 1.26322C11.336 1.23722 11.4091 1.21715 11.481 1.19581C11.5527 1.17317 11.6258 1.15776 11.6984 1.14332C11.843 1.11073 11.9883 1.09596 12.1275 1.08344C12.1972 1.07815 12.2667 1.07879 12.3339 1.07782C12.401 1.07686 12.4665 1.07686 12.5304 1.08344C12.5939 1.08906 12.6555 1.09452 12.7151 1.09982C12.7746 1.10543 12.8315 1.11956 12.8858 1.12871C12.9405 1.13962 12.9916 1.14813 13.0416 1.16001C13.0924 1.17349 13.1405 1.18633 13.1848 1.20014C13.2289 1.21362 13.27 1.22614 13.3083 1.23754C13.3441 1.25038 13.3721 1.2629 13.3997 1.27446C13.5079 1.32149 13.5693 1.35038 13.5693 1.35038C13.6892 1.40657 13.7407 1.54959 13.6841 1.66917ZM14.0966 2.10016C13.9776 2.03018 13.9381 1.87704 14.0081 1.75794C14.0782 1.63932 14.2319 1.59951 14.3509 1.66949L14.3685 1.68009C14.4878 1.75007 14.5277 1.90321 14.4576 2.02231C14.4106 2.10145 14.3271 2.14527 14.2415 2.14527C14.1985 2.14527 14.1547 2.13435 14.1149 2.11076L14.0966 2.10016ZM14.7974 24.3625C14.7337 24.4178 14.6553 24.445 14.5775 24.445C14.4846 24.445 14.392 24.4065 14.3261 24.3317L14.3123 24.3157C14.1908 24.1773 14.2043 23.9667 14.3425 23.8454C14.4817 23.7237 14.6923 23.7375 14.8138 23.8755L14.8283 23.8922C14.9498 24.0306 14.936 24.2409 14.7974 24.3625ZM19.3731 24.5834C19.3731 24.5834 19.3657 24.5991 19.3493 24.6274C19.3339 24.6563 19.3078 24.6951 19.2747 24.7465C19.2573 24.7709 19.2381 24.7988 19.2159 24.8274C19.1927 24.855 19.166 24.8833 19.1374 24.9141C19.0799 24.9741 19.0137 25.0431 18.9304 25.1025C18.8902 25.1346 18.8462 25.1648 18.8008 25.1979C18.7536 25.2264 18.7041 25.256 18.6523 25.2836C18.5504 25.3443 18.4327 25.3863 18.3128 25.4329C18.2517 25.4541 18.1887 25.4714 18.1254 25.491C18.0936 25.5006 18.0621 25.5106 18.0293 25.5189C17.9968 25.526 17.9637 25.533 17.9309 25.5401C17.8643 25.5533 17.7984 25.5703 17.7306 25.5796C17.6631 25.5876 17.5953 25.5963 17.5274 25.6046C17.4593 25.612 17.3908 25.613 17.323 25.6159C17.2551 25.62 17.1873 25.6191 17.1201 25.6155C16.9861 25.6127 16.8552 25.5972 16.7292 25.5793C16.6665 25.5706 16.6054 25.5562 16.5459 25.5433C16.4865 25.5298 16.428 25.5176 16.373 25.4993C16.3177 25.4826 16.2637 25.4663 16.2119 25.4505C16.1598 25.4358 16.1119 25.4123 16.0653 25.394C16.0194 25.3751 15.9747 25.3565 15.9326 25.3388C15.8898 25.3179 15.8496 25.2984 15.8126 25.2785C15.7757 25.2589 15.7409 25.2406 15.7091 25.2239C15.6786 25.2065 15.6558 25.1902 15.6323 25.1754C15.5426 25.1154 15.4921 25.0791 15.4921 25.0791C15.3941 25.0091 15.3712 24.873 15.4416 24.7751C15.4944 24.7012 15.5857 24.6701 15.6693 24.69C15.6693 24.69 15.7297 24.7041 15.8342 24.7321C15.8599 24.7382 15.8898 24.7491 15.919 24.7552C15.9473 24.7603 15.9782 24.7658 16.011 24.7722C16.0438 24.7776 16.0775 24.7857 16.1129 24.7934C16.1508 24.7992 16.1907 24.8049 16.2322 24.8114C16.3148 24.8255 16.4048 24.8348 16.499 24.8438C16.5456 24.8505 16.5948 24.8508 16.644 24.8521C16.6938 24.8524 16.7433 24.8589 16.7948 24.8573C16.8462 24.856 16.898 24.855 16.9504 24.855C17.0021 24.856 17.0552 24.8473 17.1082 24.8447C17.1613 24.8425 17.2146 24.8383 17.2677 24.8293C17.3207 24.8207 17.3741 24.8171 17.4268 24.8075C17.5323 24.787 17.6374 24.7683 17.7386 24.7391L17.8148 24.7202C17.8393 24.7118 17.864 24.7041 17.8885 24.6961C17.937 24.68 17.9862 24.6662 18.0328 24.6492C18.1248 24.6101 18.2173 24.5812 18.3009 24.5436C18.343 24.5256 18.3864 24.5121 18.4269 24.4961C18.4671 24.4797 18.5057 24.4621 18.5446 24.4486C18.6221 24.4213 18.6925 24.3921 18.7571 24.368C18.7902 24.3568 18.8211 24.3458 18.8507 24.3372C18.8786 24.3256 18.9053 24.3166 18.9297 24.3076C18.9793 24.2919 19.0185 24.2784 19.0477 24.2714C19.0757 24.2637 19.0924 24.2605 19.0924 24.2605L19.1181 24.2556C19.2451 24.2319 19.367 24.315 19.3908 24.4418C19.4004 24.4916 19.3933 24.5407 19.3731 24.5834ZM25.8259 8.41044C25.8227 8.44319 25.8201 8.47384 25.8179 8.5021C25.8146 8.52938 25.8101 8.55202 25.8066 8.57369C25.7915 8.65924 25.7812 8.7082 25.7812 8.7082C25.7619 8.80259 25.6697 8.8631 25.5751 8.84368C25.5035 8.82859 25.4514 8.77193 25.4388 8.70435C25.4388 8.70435 25.4302 8.65523 25.417 8.56951C25.4131 8.54816 25.4109 8.52312 25.4064 8.49921C25.4015 8.47577 25.3961 8.45041 25.3903 8.42392C25.3842 8.39696 25.3794 8.36854 25.3742 8.33901C25.3668 8.30851 25.3594 8.27657 25.3511 8.24302C25.336 8.17624 25.3176 8.10465 25.2958 8.03001C25.2765 7.95473 25.2459 7.87816 25.2215 7.7979C25.1903 7.71973 25.1636 7.63755 25.1264 7.55761C25.0948 7.47574 25.0518 7.39757 25.0151 7.31731C24.972 7.23978 24.9325 7.16049 24.8859 7.08713C24.8428 7.01153 24.7927 6.94218 24.748 6.87284C24.6968 6.80783 24.6541 6.74009 24.6078 6.68022C24.5638 6.61746 24.5223 6.55822 24.4837 6.50333C24.4458 6.4465 24.4107 6.39418 24.3799 6.34779C24.3503 6.29915 24.3242 6.25581 24.3014 6.22066C24.2587 6.14762 24.2374 6.09898 24.2374 6.09898L24.2307 6.08454C24.1889 5.99079 24.2313 5.881 24.3252 5.83927C24.3654 5.82161 24.4085 5.8192 24.448 5.82979C24.448 5.82979 24.502 5.84392 24.5911 5.88036C24.6361 5.8985 24.6875 5.92482 24.7438 5.95901C24.8004 5.9932 24.8637 6.03333 24.9251 6.08582C24.9569 6.11118 24.9888 6.13879 25.0215 6.16801C25.0518 6.19899 25.0839 6.23045 25.1154 6.26496C25.1472 6.29851 25.1788 6.3343 25.207 6.37411C25.2373 6.41264 25.2665 6.45276 25.2961 6.49386C25.3501 6.57925 25.4102 6.66513 25.4584 6.75984C25.5118 6.85149 25.5555 6.95005 25.5996 7.04813C25.6391 7.14797 25.6787 7.24797 25.7076 7.34958C25.7397 7.45006 25.7619 7.55167 25.7828 7.64975C25.7999 7.7483 25.8163 7.84333 25.822 7.93467C25.8301 8.02568 25.8368 8.11156 25.8339 8.19117C25.8346 8.26967 25.8323 8.34399 25.8259 8.41044Z" fill="#7900B0"/>
</svg>
